<svg width="43" height="42" viewBox="0 0 43 42" fill="none" xmlns="http://www.w3.org/2000/svg">
<path fill-rule="evenodd" clip-rule="evenodd" d="M21.5 42C33.3741 42 43 32.598 43 21C43 9.40202 33.3741 0 21.5 0C9.62588 0 0 9.40202 0 21C0 32.598 9.62588 42 21.5 42ZM11.4023 16.4519C11.4023 10.5213 16.9634 6.85706 22.5911 6.85706L22.5902 6.85877C27.7564 6.85877 32.4627 10.3302 32.4627 15.6496C32.4627 20.6476 29.8458 26.1925 24.0215 26.1925C22.6394 26.1925 20.8957 25.5179 20.2209 24.2639C20.0564 24.9001 19.9153 25.4652 19.7879 25.9751C18.9467 29.3431 18.7051 30.3104 16.3043 33.521C16.1581 33.5733 16.1113 33.6045 16.0754 33.5949C16.0412 33.5858 16.0168 33.5399 15.9261 33.4405C15.9009 33.1809 15.8724 32.9224 15.844 32.6644C15.7615 31.916 15.6795 31.1718 15.6795 30.419C15.6795 27.9408 16.563 24.6271 17.3214 21.7825C17.5663 20.8638 17.7982 19.994 17.9831 19.2171C17.5715 18.3968 17.4566 17.4008 17.4566 16.5008C17.4566 12.2151 22.6069 11.5722 22.6069 15.1182C22.6069 16.1712 22.2393 17.1914 21.8745 18.2036C21.5153 19.2 21.159 20.1888 21.159 21.1936C21.159 22.5753 22.3279 23.5396 23.6933 23.5396C27.4782 23.5396 28.6462 18.2039 28.6462 15.3591C28.6462 11.5499 25.8819 9.47648 22.1471 9.47648C17.8032 9.47648 14.4466 12.5305 14.4466 16.8376C14.4466 18.2291 15.0319 19.1647 15.4169 19.7801C15.6056 20.0817 15.7462 20.3064 15.7462 20.4702C15.7462 20.8876 15.4338 22.3662 14.8906 22.3662C13.5743 22.3662 11.4023 20.2233 11.4023 16.4519Z" fill="#DA2F2F"/>
</svg>
